<svg xmlns="http://www.w3.org/2000/svg" viewBox="0 0 32 32" width="60" height="60"><path d="M13.371,8a1,1,0,0,1,1-1H26.258a1,1,0,0,1,0,2H14.371A1,1,0,0,1,13.371,8ZM9.489,5.282,6.982,8.463,6.206,7.438a1,1,0,1,0-1.6,1.207L6.168,10.7a1,1,0,0,0,.788.4h.01a1,1,0,0,0,.785-.381l3.308-4.2a1,1,0,1,0-1.57-1.239ZM26.258,15H14.371a1,1,0,0,0,0,2H26.258a1,1,0,0,0,0-2Zm0,8H14.371a1,1,0,0,0,0,2H26.258a1,1,0,0,0,0-2ZM10.94,13.9v4.2a1,1,0,0,1-1,1h-4.2a1,1,0,0,1-1-1V13.9a1,1,0,0,1,1-1h4.2A1,1,0,0,1,10.94,13.9Zm-2,1h-2.2v2.2h2.2Zm2,7v4.2a1,1,0,0,1-1,1h-4.2a1,1,0,0,1-1-1V21.9a1,1,0,0,1,1-1h4.2A1,1,0,0,1,10.94,21.9Zm-2,1h-2.2v2.2h2.2Z" data-name="Check List" fill="#000000" class="color000 svgShape"></path></svg>